<svg width="32" height="32" viewBox="0 0 32 32" fill="none" xmlns="http://www.w3.org/2000/svg">
  <g>
    <path d="M24 0H8C3.58172 0 0 3.58172 0 8V24C0 28.4183 3.58172 32 8 32H24C28.4183 32 32 28.4183 32 24V8C32 3.58172 28.4183 0 24 0Z" fill="black"/>
    <path d="M16 6C12.134 6 9 9.134 9 13C9 18.25 16 26 16 26C16 26 23 18.25 23 13C23 9.134 19.866 6 16 6Z" fill="#41B883"/>
    <path d="M16 16C17.6569 16 19 14.6569 19 13C19 11.3431 17.6569 10 16 10C14.3431 10 13 11.3431 13 13C13 14.6569 14.3431 16 16 16Z" fill="black"/>
  </g>
  <defs>
    <clipPath id="clip0_92_2">
      <rect width="32" height="32" fill="currentColor"/>
    </clipPath>
  </defs>
</svg>
